<svg xmlns="http://www.w3.org/2000/svg" version="1.1" xmlns:xlink="http://www.w3.org/1999/xlink" xmlns:svgjs="http://svgjs.dev/svgjs" width="1000" height="623" viewBox="0 0 1000 623"><g transform="matrix(1,0,0,1,-0.6060606060606233,0.2522267206477409)"><svg viewBox="0 0 396 247" data-background-color="#ffffff" preserveAspectRatio="xMidYMid meet" height="623" width="1000" xmlns="http://www.w3.org/2000/svg" xmlns:xlink="http://www.w3.org/1999/xlink"><g id="tight-bounds" transform="matrix(1,0,0,1,0.2400000000000091,-0.09999999999999432)"><svg viewBox="0 0 395.52 247.2" height="247.2" width="395.52"><g><svg></svg></g><g><svg viewBox="0 0 395.52 247.2" height="247.2" width="395.52"><g transform="matrix(1,0,0,1,140.17903846153845,37.08)"><svg viewBox="0 0 115.16192307692307 173.04" height="173.04" width="115.16192307692307"><g><svg viewBox="0 0 115.16192307692307 173.04" height="173.04" width="115.16192307692307"><g><svg viewBox="0 0 115.16192307692307 173.04" height="173.04" width="115.16192307692307"><g><svg viewBox="0 0 115.16192307692307 173.04" height="173.04" width="115.16192307692307"><g id="textblocktransform"><svg viewBox="0 0 115.16192307692307 173.04" height="173.04" width="115.16192307692307" id="textblock"><g><svg viewBox="0 0 115.16192307692307 173.04" height="173.04" width="115.16192307692307"><g transform="matrix(1,0,0,1,0,0)"><svg width="115.16192307692307" viewBox="3 -35.54999923706055 23.65999984741211 35.54999923706055" height="173.04" data-palette-color="#915eff"><path d="M19.87 0L26.66 0 26.66-35.55 19.87-35.55 19.87-20.97 9.81-20.97 9.81-35.55 3-35.55 3 0 9.81 0 9.81-15.41 19.87-15.41 19.87 0Z" opacity="1" transform="matrix(1,0,0,1,0,0)" fill="#915eff" class="wordmark-text-0" data-fill-palette-color="primary" id="text-0"></path></svg></g></svg></g></svg></g></svg></g></svg></g></svg></g></svg></g><g><path xmlns="http://www.w3.org/2000/svg" d="M0 247.2v-247.2h395.52v247.2zM379.915 231.595v-215.99h-364.31v215.99z" fill="#915eff" fill-rule="nonzero" stroke="none" stroke-width="1" stroke-linecap="butt" stroke-linejoin="miter" stroke-miterlimit="10" stroke-dasharray="" stroke-dashoffset="0" font-family="none" font-weight="none" font-size="none" text-anchor="none" style="mix-blend-mode: normal" data-fill-palette-color="tertiary"></path></g></svg></g><defs></defs></svg><rect width="395.52" height="247.2" fill="none" stroke="none" visibility="hidden"></rect></g></svg></g></svg>